<mxfile host="app.diagrams.net" modified="2022-10-24T18:16:34.317Z" agent="5.0 (Windows)" etag="hwYpz4OaC5JFnhk3wrA4" version="20.5.1" type="github">
  <diagram id="C5RBs43oDa-KdzZeNtuy" name="Page-1">
    <mxGraphModel dx="1038" dy="536" grid="1" gridSize="10" guides="1" tooltips="1" connect="1" arrows="1" fold="1" page="1" pageScale="1" pageWidth="827" pageHeight="1169" math="0" shadow="0">
      <root>
        <mxCell id="WIyWlLk6GJQsqaUBKTNV-0" />
        <mxCell id="WIyWlLk6GJQsqaUBKTNV-1" parent="WIyWlLk6GJQsqaUBKTNV-0" />
        <mxCell id="2E20e05wh0Ns_q2YyygR-3" value="" style="edgeStyle=orthogonalEdgeStyle;rounded=0;orthogonalLoop=1;jettySize=auto;html=1;exitX=0.5;exitY=1;exitDx=0;exitDy=0;" edge="1" parent="WIyWlLk6GJQsqaUBKTNV-1" source="2E20e05wh0Ns_q2YyygR-19" target="2E20e05wh0Ns_q2YyygR-2">
          <mxGeometry relative="1" as="geometry">
            <mxPoint x="380" y="120" as="sourcePoint" />
          </mxGeometry>
        </mxCell>
        <mxCell id="2E20e05wh0Ns_q2YyygR-5" value="" style="edgeStyle=orthogonalEdgeStyle;rounded=0;orthogonalLoop=1;jettySize=auto;html=1;" edge="1" parent="WIyWlLk6GJQsqaUBKTNV-1" source="2E20e05wh0Ns_q2YyygR-2" target="2E20e05wh0Ns_q2YyygR-4">
          <mxGeometry relative="1" as="geometry" />
        </mxCell>
        <mxCell id="2E20e05wh0Ns_q2YyygR-8" value="" style="edgeStyle=orthogonalEdgeStyle;rounded=0;orthogonalLoop=1;jettySize=auto;html=1;" edge="1" parent="WIyWlLk6GJQsqaUBKTNV-1" source="2E20e05wh0Ns_q2YyygR-2" target="2E20e05wh0Ns_q2YyygR-7">
          <mxGeometry relative="1" as="geometry" />
        </mxCell>
        <mxCell id="2E20e05wh0Ns_q2YyygR-2" value="&lt;div&gt;have an&lt;/div&gt;&lt;div&gt;account?&lt;/div&gt;" style="rhombus;whiteSpace=wrap;html=1;rounded=0;" vertex="1" parent="WIyWlLk6GJQsqaUBKTNV-1">
          <mxGeometry x="325" y="160" width="110" height="90" as="geometry" />
        </mxCell>
        <mxCell id="2E20e05wh0Ns_q2YyygR-15" value="" style="edgeStyle=orthogonalEdgeStyle;rounded=0;orthogonalLoop=1;jettySize=auto;html=1;entryX=0.5;entryY=0;entryDx=0;entryDy=0;" edge="1" parent="WIyWlLk6GJQsqaUBKTNV-1" source="2E20e05wh0Ns_q2YyygR-4" target="2E20e05wh0Ns_q2YyygR-13">
          <mxGeometry relative="1" as="geometry">
            <mxPoint x="380" y="485" as="targetPoint" />
          </mxGeometry>
        </mxCell>
        <mxCell id="2E20e05wh0Ns_q2YyygR-4" value="Log in" style="whiteSpace=wrap;html=1;rounded=0;" vertex="1" parent="WIyWlLk6GJQsqaUBKTNV-1">
          <mxGeometry x="320" y="345" width="120" height="60" as="geometry" />
        </mxCell>
        <mxCell id="2E20e05wh0Ns_q2YyygR-6" value="yes" style="text;html=1;strokeColor=none;fillColor=none;align=center;verticalAlign=middle;whiteSpace=wrap;rounded=0;" vertex="1" parent="WIyWlLk6GJQsqaUBKTNV-1">
          <mxGeometry x="365" y="270" width="60" height="30" as="geometry" />
        </mxCell>
        <mxCell id="2E20e05wh0Ns_q2YyygR-10" value="" style="edgeStyle=orthogonalEdgeStyle;rounded=0;orthogonalLoop=1;jettySize=auto;html=1;entryX=0;entryY=0.5;entryDx=0;entryDy=0;" edge="1" parent="WIyWlLk6GJQsqaUBKTNV-1" source="2E20e05wh0Ns_q2YyygR-7" target="2E20e05wh0Ns_q2YyygR-4">
          <mxGeometry relative="1" as="geometry">
            <mxPoint x="190" y="325" as="targetPoint" />
            <Array as="points">
              <mxPoint x="190" y="375" />
            </Array>
          </mxGeometry>
        </mxCell>
        <mxCell id="2E20e05wh0Ns_q2YyygR-7" value="Register an account" style="whiteSpace=wrap;html=1;rounded=0;" vertex="1" parent="WIyWlLk6GJQsqaUBKTNV-1">
          <mxGeometry x="130" y="175" width="120" height="60" as="geometry" />
        </mxCell>
        <mxCell id="2E20e05wh0Ns_q2YyygR-11" value="no" style="text;html=1;strokeColor=none;fillColor=none;align=center;verticalAlign=middle;whiteSpace=wrap;rounded=0;" vertex="1" parent="WIyWlLk6GJQsqaUBKTNV-1">
          <mxGeometry x="265" y="180" width="60" height="30" as="geometry" />
        </mxCell>
        <mxCell id="2E20e05wh0Ns_q2YyygR-29" value="" style="edgeStyle=orthogonalEdgeStyle;rounded=0;orthogonalLoop=1;jettySize=auto;html=1;" edge="1" parent="WIyWlLk6GJQsqaUBKTNV-1" source="2E20e05wh0Ns_q2YyygR-13" target="2E20e05wh0Ns_q2YyygR-28">
          <mxGeometry relative="1" as="geometry" />
        </mxCell>
        <mxCell id="2E20e05wh0Ns_q2YyygR-13" value="Possible Tasks in the System" style="swimlane;" vertex="1" parent="WIyWlLk6GJQsqaUBKTNV-1">
          <mxGeometry x="130" y="485" width="500" height="200" as="geometry" />
        </mxCell>
        <mxCell id="2E20e05wh0Ns_q2YyygR-16" value="Track application progress" style="rounded=0;whiteSpace=wrap;html=1;" vertex="1" parent="2E20e05wh0Ns_q2YyygR-13">
          <mxGeometry x="360" y="40" width="120" height="60" as="geometry" />
        </mxCell>
        <mxCell id="2E20e05wh0Ns_q2YyygR-17" value="Submit an application" style="rounded=0;whiteSpace=wrap;html=1;" vertex="1" parent="2E20e05wh0Ns_q2YyygR-13">
          <mxGeometry x="200" y="40" width="120" height="60" as="geometry" />
        </mxCell>
        <mxCell id="2E20e05wh0Ns_q2YyygR-18" value="Review an application (Fund admin)" style="rounded=0;whiteSpace=wrap;html=1;" vertex="1" parent="2E20e05wh0Ns_q2YyygR-13">
          <mxGeometry x="30" y="135" width="120" height="60" as="geometry" />
        </mxCell>
        <mxCell id="2E20e05wh0Ns_q2YyygR-21" value="Add/Edit personal/Group information" style="rounded=0;whiteSpace=wrap;html=1;" vertex="1" parent="2E20e05wh0Ns_q2YyygR-13">
          <mxGeometry x="30" y="40" width="120" height="60" as="geometry" />
        </mxCell>
        <mxCell id="2E20e05wh0Ns_q2YyygR-27" value="Track fund utilization in saccos (Fund admin)" style="rounded=0;whiteSpace=wrap;html=1;" vertex="1" parent="2E20e05wh0Ns_q2YyygR-13">
          <mxGeometry x="200" y="135" width="120" height="60" as="geometry" />
        </mxCell>
        <mxCell id="2E20e05wh0Ns_q2YyygR-19" value="Visit Hustler Fund MIS" style="rounded=1;whiteSpace=wrap;html=1;" vertex="1" parent="WIyWlLk6GJQsqaUBKTNV-1">
          <mxGeometry x="320" y="40" width="120" height="60" as="geometry" />
        </mxCell>
        <mxCell id="2E20e05wh0Ns_q2YyygR-24" value="" style="edgeStyle=orthogonalEdgeStyle;rounded=0;orthogonalLoop=1;jettySize=auto;html=1;exitX=0;exitY=0.5;exitDx=0;exitDy=0;" edge="1" parent="WIyWlLk6GJQsqaUBKTNV-1" source="2E20e05wh0Ns_q2YyygR-26" target="2E20e05wh0Ns_q2YyygR-4">
          <mxGeometry relative="1" as="geometry">
            <mxPoint x="510" y="375" as="sourcePoint" />
          </mxGeometry>
        </mxCell>
        <mxCell id="2E20e05wh0Ns_q2YyygR-26" value="&lt;div&gt;Self service&lt;/div&gt;&lt;div&gt;Password resets&lt;/div&gt;" style="shape=process;whiteSpace=wrap;html=1;backgroundOutline=1;" vertex="1" parent="WIyWlLk6GJQsqaUBKTNV-1">
          <mxGeometry x="530" y="345" width="120" height="60" as="geometry" />
        </mxCell>
        <mxCell id="2E20e05wh0Ns_q2YyygR-28" value="Log off" style="rounded=1;whiteSpace=wrap;html=1;" vertex="1" parent="WIyWlLk6GJQsqaUBKTNV-1">
          <mxGeometry x="320" y="760" width="120" height="60" as="geometry" />
        </mxCell>
        <mxCell id="2E20e05wh0Ns_q2YyygR-30" value="Proposed Hustler Fund - General Overview" style="swimlane;" vertex="1" parent="WIyWlLk6GJQsqaUBKTNV-1">
          <mxGeometry x="60" y="10" width="660" height="830" as="geometry" />
        </mxCell>
      </root>
    </mxGraphModel>
  </diagram>
</mxfile>
